<?xml version="1.0"?>
<svg width="135" height="240" xmlns="http://www.w3.org/2000/svg" xmlns:svg="http://www.w3.org/2000/svg" version="1.1" xml:space="preserve">
 <g class="layer">
  <title>Layer 1</title>
  <g id="svg_1">
   <path d="m40.38,93.16l0,-14.11c0,-15.23 12.39,-27.62 27.62,-27.62s27.62,12.39 27.62,27.62l0,14.11c0.06,0.02 0.13,0.05 0.19,0.08c3.94,1.66 7.7,3.67 11.24,5.99l0,-20.18c0,-21.53 -17.52,-39.05 -39.05,-39.05s-39.05,17.52 -39.05,39.05l0,20.18c3.55,-2.32 7.3,-4.32 11.24,-5.99c0.06,-0.03 0.13,-0.05 0.19,-0.08z" fill="#bf0000" id="svg_2"/>
   <path d="m68,99.05c-33.14,0 -60,26.86 -60,60s26.86,60 60,60s60,-26.86 60,-60s-26.86,-60 -60,-60zm20.61,72.53l-8.08,8.08l-12.53,-12.53l-12.53,12.53l-8.08,-8.08l12.53,-12.53l-12.53,-12.53l8.08,-8.08l12.53,12.53l12.53,-12.53l8.08,8.08l-12.53,12.53l12.53,12.53z" fill="#bf0000" id="svg_3"/>
  </g>
 </g>
</svg>